<mxfile host="app.diagrams.net" modified="2023-12-10T04:48:38.188Z" agent="Mozilla/5.0 (Windows NT 10.0; Win64; x64) AppleWebKit/537.36 (KHTML, like Gecko) Chrome/120.0.0.0 Safari/537.36" etag="CYEmpDIYIoSsdOsSwkFx" version="22.1.7" type="google">
  <diagram id="C5RBs43oDa-KdzZeNtuy" name="Page-1">
    <mxGraphModel grid="1" page="1" gridSize="10" guides="1" tooltips="1" connect="1" arrows="1" fold="1" pageScale="1" pageWidth="827" pageHeight="1169" math="0" shadow="0">
      <root>
        <mxCell id="WIyWlLk6GJQsqaUBKTNV-0" />
        <mxCell id="WIyWlLk6GJQsqaUBKTNV-1" parent="WIyWlLk6GJQsqaUBKTNV-0" />
        <mxCell id="B3XL4RLK7a_Q2uKBsKe0-55" style="edgeStyle=orthogonalEdgeStyle;rounded=0;orthogonalLoop=1;jettySize=auto;html=1;entryX=0;entryY=0.5;entryDx=0;entryDy=0;" edge="1" parent="WIyWlLk6GJQsqaUBKTNV-1" source="nfAjjsnIl3kCa8ZgCJyo-0" target="nfAjjsnIl3kCa8ZgCJyo-4">
          <mxGeometry relative="1" as="geometry" />
        </mxCell>
        <mxCell id="B3XL4RLK7a_Q2uKBsKe0-56" style="edgeStyle=orthogonalEdgeStyle;rounded=0;orthogonalLoop=1;jettySize=auto;html=1;entryX=0;entryY=0.5;entryDx=0;entryDy=0;" edge="1" parent="WIyWlLk6GJQsqaUBKTNV-1" source="nfAjjsnIl3kCa8ZgCJyo-0" target="nfAjjsnIl3kCa8ZgCJyo-1">
          <mxGeometry relative="1" as="geometry" />
        </mxCell>
        <mxCell id="B3XL4RLK7a_Q2uKBsKe0-59" style="edgeStyle=orthogonalEdgeStyle;rounded=0;orthogonalLoop=1;jettySize=auto;html=1;entryX=0;entryY=0.5;entryDx=0;entryDy=0;" edge="1" parent="WIyWlLk6GJQsqaUBKTNV-1" source="nfAjjsnIl3kCa8ZgCJyo-0" target="B3XL4RLK7a_Q2uKBsKe0-26">
          <mxGeometry relative="1" as="geometry">
            <Array as="points">
              <mxPoint x="-530" y="480" />
              <mxPoint x="-530" y="1205" />
            </Array>
          </mxGeometry>
        </mxCell>
        <mxCell id="nfAjjsnIl3kCa8ZgCJyo-0" value="HTML&lt;br&gt;HyperText Markup Language" style="rounded=0;whiteSpace=wrap;html=1;fontSize=16;" vertex="1" parent="WIyWlLk6GJQsqaUBKTNV-1">
          <mxGeometry x="-800" y="450" width="220" height="60" as="geometry" />
        </mxCell>
        <mxCell id="B3XL4RLK7a_Q2uKBsKe0-60" style="edgeStyle=orthogonalEdgeStyle;rounded=0;orthogonalLoop=1;jettySize=auto;html=1;entryX=0;entryY=0.5;entryDx=0;entryDy=0;" edge="1" parent="WIyWlLk6GJQsqaUBKTNV-1" source="nfAjjsnIl3kCa8ZgCJyo-1" target="nfAjjsnIl3kCa8ZgCJyo-2">
          <mxGeometry relative="1" as="geometry" />
        </mxCell>
        <mxCell id="B3XL4RLK7a_Q2uKBsKe0-61" style="edgeStyle=orthogonalEdgeStyle;rounded=0;orthogonalLoop=1;jettySize=auto;html=1;entryX=0;entryY=0.5;entryDx=0;entryDy=0;" edge="1" parent="WIyWlLk6GJQsqaUBKTNV-1" source="nfAjjsnIl3kCa8ZgCJyo-1" target="nfAjjsnIl3kCa8ZgCJyo-3">
          <mxGeometry relative="1" as="geometry" />
        </mxCell>
        <mxCell id="nfAjjsnIl3kCa8ZgCJyo-1" value="Ứng dụng" style="rounded=0;whiteSpace=wrap;html=1;fontSize=16;" vertex="1" parent="WIyWlLk6GJQsqaUBKTNV-1">
          <mxGeometry x="-480" y="110" width="120" height="60" as="geometry" />
        </mxCell>
        <mxCell id="nfAjjsnIl3kCa8ZgCJyo-2" value="Cung cấp các tag khách nhau để mô tả nội dung trang web" style="rounded=0;whiteSpace=wrap;html=1;fontSize=16;" vertex="1" parent="WIyWlLk6GJQsqaUBKTNV-1">
          <mxGeometry x="-240" y="40" width="270" height="60" as="geometry" />
        </mxCell>
        <mxCell id="nfAjjsnIl3kCa8ZgCJyo-3" value="Trình duyệt hiểu và render website" style="rounded=0;whiteSpace=wrap;html=1;fontSize=16;" vertex="1" parent="WIyWlLk6GJQsqaUBKTNV-1">
          <mxGeometry x="-240" y="180" width="270" height="60" as="geometry" />
        </mxCell>
        <mxCell id="B3XL4RLK7a_Q2uKBsKe0-62" style="edgeStyle=orthogonalEdgeStyle;rounded=0;orthogonalLoop=1;jettySize=auto;html=1;entryX=0;entryY=0.5;entryDx=0;entryDy=0;" edge="1" parent="WIyWlLk6GJQsqaUBKTNV-1" source="nfAjjsnIl3kCa8ZgCJyo-4" target="nfAjjsnIl3kCa8ZgCJyo-5">
          <mxGeometry relative="1" as="geometry" />
        </mxCell>
        <mxCell id="B3XL4RLK7a_Q2uKBsKe0-63" style="edgeStyle=orthogonalEdgeStyle;rounded=0;orthogonalLoop=1;jettySize=auto;html=1;entryX=0;entryY=0.5;entryDx=0;entryDy=0;" edge="1" parent="WIyWlLk6GJQsqaUBKTNV-1" source="nfAjjsnIl3kCa8ZgCJyo-4" target="nfAjjsnIl3kCa8ZgCJyo-6">
          <mxGeometry relative="1" as="geometry" />
        </mxCell>
        <mxCell id="nfAjjsnIl3kCa8ZgCJyo-4" value="Cấu trúc tài liệu HTLM" style="rounded=0;whiteSpace=wrap;html=1;fontSize=16;" vertex="1" parent="WIyWlLk6GJQsqaUBKTNV-1">
          <mxGeometry x="-480" y="450" width="120" height="60" as="geometry" />
        </mxCell>
        <mxCell id="nfAjjsnIl3kCa8ZgCJyo-5" value="Doctype khai báo sử dụng HTML 5" style="rounded=0;whiteSpace=wrap;html=1;fontSize=16;" vertex="1" parent="WIyWlLk6GJQsqaUBKTNV-1">
          <mxGeometry x="-240" y="380" width="270" height="60" as="geometry" />
        </mxCell>
        <mxCell id="B3XL4RLK7a_Q2uKBsKe0-64" style="edgeStyle=orthogonalEdgeStyle;rounded=0;orthogonalLoop=1;jettySize=auto;html=1;entryX=0;entryY=0.5;entryDx=0;entryDy=0;" edge="1" parent="WIyWlLk6GJQsqaUBKTNV-1" source="nfAjjsnIl3kCa8ZgCJyo-6" target="nfAjjsnIl3kCa8ZgCJyo-7">
          <mxGeometry relative="1" as="geometry" />
        </mxCell>
        <mxCell id="B3XL4RLK7a_Q2uKBsKe0-65" style="edgeStyle=orthogonalEdgeStyle;rounded=0;orthogonalLoop=1;jettySize=auto;html=1;entryX=0;entryY=0.5;entryDx=0;entryDy=0;" edge="1" parent="WIyWlLk6GJQsqaUBKTNV-1" source="nfAjjsnIl3kCa8ZgCJyo-6" target="nfAjjsnIl3kCa8ZgCJyo-8">
          <mxGeometry relative="1" as="geometry" />
        </mxCell>
        <mxCell id="nfAjjsnIl3kCa8ZgCJyo-6" value="HTML chứa nội dung trang web" style="rounded=0;whiteSpace=wrap;html=1;fontSize=16;" vertex="1" parent="WIyWlLk6GJQsqaUBKTNV-1">
          <mxGeometry x="-240" y="525" width="270" height="60" as="geometry" />
        </mxCell>
        <mxCell id="nfAjjsnIl3kCa8ZgCJyo-7" value="Head chứa thông tin website" style="rounded=0;whiteSpace=wrap;html=1;fontSize=16;" vertex="1" parent="WIyWlLk6GJQsqaUBKTNV-1">
          <mxGeometry x="120" y="440" width="270" height="60" as="geometry" />
        </mxCell>
        <mxCell id="nfAjjsnIl3kCa8ZgCJyo-8" value="Body chứa nội dung hiện thị trên giao diện" style="rounded=0;whiteSpace=wrap;html=1;fontSize=16;" vertex="1" parent="WIyWlLk6GJQsqaUBKTNV-1">
          <mxGeometry x="120" y="560" width="270" height="60" as="geometry" />
        </mxCell>
        <mxCell id="B3XL4RLK7a_Q2uKBsKe0-19" value="Các thẻ phổ biến" style="shape=table;startSize=60;container=1;collapsible=0;childLayout=tableLayout;fixedRows=1;rowLines=0;fontStyle=0;strokeColor=default;fontSize=16;" vertex="1" parent="WIyWlLk6GJQsqaUBKTNV-1">
          <mxGeometry x="-480" y="1020" width="400" height="360" as="geometry" />
        </mxCell>
        <mxCell id="B3XL4RLK7a_Q2uKBsKe0-20" value="" style="shape=tableRow;horizontal=0;startSize=0;swimlaneHead=0;swimlaneBody=0;top=0;left=0;bottom=0;right=0;collapsible=0;dropTarget=0;fillColor=none;points=[[0,0.5],[1,0.5]];portConstraint=eastwest;strokeColor=inherit;fontSize=16;" vertex="1" parent="B3XL4RLK7a_Q2uKBsKe0-19">
          <mxGeometry y="60" width="400" height="50" as="geometry" />
        </mxCell>
        <mxCell id="B3XL4RLK7a_Q2uKBsKe0-21" value="Văn bản" style="shape=partialRectangle;html=1;whiteSpace=wrap;connectable=0;fillColor=none;top=0;left=0;bottom=0;right=0;overflow=hidden;pointerEvents=1;strokeColor=inherit;fontSize=16;" vertex="1" parent="B3XL4RLK7a_Q2uKBsKe0-20">
          <mxGeometry width="150" height="50" as="geometry">
            <mxRectangle width="150" height="50" as="alternateBounds" />
          </mxGeometry>
        </mxCell>
        <mxCell id="B3XL4RLK7a_Q2uKBsKe0-22" value="&amp;lt;h1&amp;gt;, &amp;lt;h6&amp;gt;, &amp;lt;p&amp;gt;, ..." style="shape=partialRectangle;html=1;whiteSpace=wrap;connectable=0;fillColor=none;top=0;left=0;bottom=0;right=0;align=left;spacingLeft=6;overflow=hidden;strokeColor=inherit;fontSize=16;" vertex="1" parent="B3XL4RLK7a_Q2uKBsKe0-20">
          <mxGeometry x="150" width="250" height="50" as="geometry">
            <mxRectangle width="250" height="50" as="alternateBounds" />
          </mxGeometry>
        </mxCell>
        <mxCell id="B3XL4RLK7a_Q2uKBsKe0-23" value="" style="shape=tableRow;horizontal=0;startSize=0;swimlaneHead=0;swimlaneBody=0;top=0;left=0;bottom=0;right=0;collapsible=0;dropTarget=0;fillColor=none;points=[[0,0.5],[1,0.5]];portConstraint=eastwest;strokeColor=inherit;fontSize=16;" vertex="1" parent="B3XL4RLK7a_Q2uKBsKe0-19">
          <mxGeometry y="110" width="400" height="50" as="geometry" />
        </mxCell>
        <mxCell id="B3XL4RLK7a_Q2uKBsKe0-24" value="Liên kết" style="shape=partialRectangle;html=1;whiteSpace=wrap;connectable=0;fillColor=none;top=0;left=0;bottom=0;right=0;overflow=hidden;strokeColor=inherit;fontSize=16;" vertex="1" parent="B3XL4RLK7a_Q2uKBsKe0-23">
          <mxGeometry width="150" height="50" as="geometry">
            <mxRectangle width="150" height="50" as="alternateBounds" />
          </mxGeometry>
        </mxCell>
        <mxCell id="B3XL4RLK7a_Q2uKBsKe0-25" value="&amp;lt;a href=&quot;#&quot;&amp;gt; &amp;lt;/a&amp;gt;" style="shape=partialRectangle;html=1;whiteSpace=wrap;connectable=0;fillColor=none;top=0;left=0;bottom=0;right=0;align=left;spacingLeft=6;overflow=hidden;strokeColor=inherit;fontSize=16;" vertex="1" parent="B3XL4RLK7a_Q2uKBsKe0-23">
          <mxGeometry x="150" width="250" height="50" as="geometry">
            <mxRectangle width="250" height="50" as="alternateBounds" />
          </mxGeometry>
        </mxCell>
        <mxCell id="B3XL4RLK7a_Q2uKBsKe0-26" value="" style="shape=tableRow;horizontal=0;startSize=0;swimlaneHead=0;swimlaneBody=0;top=0;left=0;bottom=0;right=0;collapsible=0;dropTarget=0;fillColor=none;points=[[0,0.5],[1,0.5]];portConstraint=eastwest;strokeColor=inherit;fontSize=16;" vertex="1" parent="B3XL4RLK7a_Q2uKBsKe0-19">
          <mxGeometry y="160" width="400" height="50" as="geometry" />
        </mxCell>
        <mxCell id="B3XL4RLK7a_Q2uKBsKe0-27" value="Danh sách" style="shape=partialRectangle;html=1;whiteSpace=wrap;connectable=0;fillColor=none;top=0;left=0;bottom=0;right=0;overflow=hidden;strokeColor=inherit;fontSize=16;" vertex="1" parent="B3XL4RLK7a_Q2uKBsKe0-26">
          <mxGeometry width="150" height="50" as="geometry">
            <mxRectangle width="150" height="50" as="alternateBounds" />
          </mxGeometry>
        </mxCell>
        <mxCell id="B3XL4RLK7a_Q2uKBsKe0-28" value="&amp;lt;ul&amp;gt;, &amp;lt;ol&amp;gt;, &amp;lt;dl&amp;gt;" style="shape=partialRectangle;html=1;whiteSpace=wrap;connectable=0;fillColor=none;top=0;left=0;bottom=0;right=0;align=left;spacingLeft=6;overflow=hidden;strokeColor=inherit;fontSize=16;" vertex="1" parent="B3XL4RLK7a_Q2uKBsKe0-26">
          <mxGeometry x="150" width="250" height="50" as="geometry">
            <mxRectangle width="250" height="50" as="alternateBounds" />
          </mxGeometry>
        </mxCell>
        <mxCell id="B3XL4RLK7a_Q2uKBsKe0-29" value="" style="shape=tableRow;horizontal=0;startSize=0;swimlaneHead=0;swimlaneBody=0;top=0;left=0;bottom=0;right=0;collapsible=0;dropTarget=0;fillColor=none;points=[[0,0.5],[1,0.5]];portConstraint=eastwest;strokeColor=inherit;fontSize=16;" vertex="1" parent="B3XL4RLK7a_Q2uKBsKe0-19">
          <mxGeometry y="210" width="400" height="50" as="geometry" />
        </mxCell>
        <mxCell id="B3XL4RLK7a_Q2uKBsKe0-30" value="Form" style="shape=partialRectangle;html=1;whiteSpace=wrap;connectable=0;fillColor=none;top=0;left=0;bottom=0;right=0;overflow=hidden;pointerEvents=1;strokeColor=inherit;fontSize=16;" vertex="1" parent="B3XL4RLK7a_Q2uKBsKe0-29">
          <mxGeometry width="150" height="50" as="geometry">
            <mxRectangle width="150" height="50" as="alternateBounds" />
          </mxGeometry>
        </mxCell>
        <mxCell id="B3XL4RLK7a_Q2uKBsKe0-31" value="&amp;lt;form&amp;gt;, &amp;lt;input&amp;gt;, ..." style="shape=partialRectangle;html=1;whiteSpace=wrap;connectable=0;fillColor=none;top=0;left=0;bottom=0;right=0;align=left;spacingLeft=6;overflow=hidden;strokeColor=inherit;fontSize=16;" vertex="1" parent="B3XL4RLK7a_Q2uKBsKe0-29">
          <mxGeometry x="150" width="250" height="50" as="geometry">
            <mxRectangle width="250" height="50" as="alternateBounds" />
          </mxGeometry>
        </mxCell>
        <mxCell id="B3XL4RLK7a_Q2uKBsKe0-52" value="" style="shape=tableRow;horizontal=0;startSize=0;swimlaneHead=0;swimlaneBody=0;top=0;left=0;bottom=0;right=0;collapsible=0;dropTarget=0;fillColor=none;points=[[0,0.5],[1,0.5]];portConstraint=eastwest;strokeColor=inherit;fontSize=16;" vertex="1" parent="B3XL4RLK7a_Q2uKBsKe0-19">
          <mxGeometry y="260" width="400" height="50" as="geometry" />
        </mxCell>
        <mxCell id="B3XL4RLK7a_Q2uKBsKe0-53" value="Ngữ nghĩa" style="shape=partialRectangle;html=1;whiteSpace=wrap;connectable=0;fillColor=none;top=0;left=0;bottom=0;right=0;overflow=hidden;pointerEvents=1;strokeColor=inherit;fontSize=16;" vertex="1" parent="B3XL4RLK7a_Q2uKBsKe0-52">
          <mxGeometry width="150" height="50" as="geometry">
            <mxRectangle width="150" height="50" as="alternateBounds" />
          </mxGeometry>
        </mxCell>
        <mxCell id="B3XL4RLK7a_Q2uKBsKe0-54" value="&amp;lt;trong&amp;gt;, &amp;lt;nav&amp;gt;, &amp;lt;header&amp;gt;, &amp;lt;footer&amp;gt;" style="shape=partialRectangle;html=1;whiteSpace=wrap;connectable=0;fillColor=none;top=0;left=0;bottom=0;right=0;align=left;spacingLeft=6;overflow=hidden;strokeColor=inherit;fontSize=16;" vertex="1" parent="B3XL4RLK7a_Q2uKBsKe0-52">
          <mxGeometry x="150" width="250" height="50" as="geometry">
            <mxRectangle width="250" height="50" as="alternateBounds" />
          </mxGeometry>
        </mxCell>
        <mxCell id="B3XL4RLK7a_Q2uKBsKe0-66" value="" style="shape=tableRow;horizontal=0;startSize=0;swimlaneHead=0;swimlaneBody=0;top=0;left=0;bottom=0;right=0;collapsible=0;dropTarget=0;fillColor=none;points=[[0,0.5],[1,0.5]];portConstraint=eastwest;strokeColor=inherit;fontSize=16;" vertex="1" parent="B3XL4RLK7a_Q2uKBsKe0-19">
          <mxGeometry y="310" width="400" height="50" as="geometry" />
        </mxCell>
        <mxCell id="B3XL4RLK7a_Q2uKBsKe0-67" value="Table" style="shape=partialRectangle;html=1;whiteSpace=wrap;connectable=0;fillColor=none;top=0;left=0;bottom=0;right=0;overflow=hidden;pointerEvents=1;strokeColor=inherit;fontSize=16;" vertex="1" parent="B3XL4RLK7a_Q2uKBsKe0-66">
          <mxGeometry width="150" height="50" as="geometry">
            <mxRectangle width="150" height="50" as="alternateBounds" />
          </mxGeometry>
        </mxCell>
        <mxCell id="B3XL4RLK7a_Q2uKBsKe0-68" value="&amp;lt;thead&amp;gt;, &amp;lt;tbody&amp;gt;, &amp;lt;th&amp;gt;, &amp;lt;td&amp;gt;, ..." style="shape=partialRectangle;html=1;whiteSpace=wrap;connectable=0;fillColor=none;top=0;left=0;bottom=0;right=0;align=left;spacingLeft=6;overflow=hidden;strokeColor=inherit;fontSize=16;" vertex="1" parent="B3XL4RLK7a_Q2uKBsKe0-66">
          <mxGeometry x="150" width="250" height="50" as="geometry">
            <mxRectangle width="250" height="50" as="alternateBounds" />
          </mxGeometry>
        </mxCell>
        <mxCell id="B3XL4RLK7a_Q2uKBsKe0-39" value="Cấu trúc thẻ HTML" style="shape=table;startSize=50;container=1;collapsible=0;childLayout=tableLayout;fixedRows=1;rowLines=0;fontStyle=0;strokeColor=default;fontSize=16;" vertex="1" parent="WIyWlLk6GJQsqaUBKTNV-1">
          <mxGeometry x="-480" y="740" width="400" height="180" as="geometry" />
        </mxCell>
        <mxCell id="B3XL4RLK7a_Q2uKBsKe0-40" value="" style="shape=tableRow;horizontal=0;startSize=0;swimlaneHead=0;swimlaneBody=0;top=0;left=0;bottom=0;right=0;collapsible=0;dropTarget=0;fillColor=none;points=[[0,0.5],[1,0.5]];portConstraint=eastwest;strokeColor=inherit;fontSize=16;" vertex="1" parent="B3XL4RLK7a_Q2uKBsKe0-39">
          <mxGeometry y="50" width="400" height="50" as="geometry" />
        </mxCell>
        <mxCell id="B3XL4RLK7a_Q2uKBsKe0-41" value="Thẻ thông thường" style="shape=partialRectangle;html=1;whiteSpace=wrap;connectable=0;fillColor=none;top=0;left=0;bottom=0;right=0;overflow=hidden;pointerEvents=1;strokeColor=inherit;fontSize=16;" vertex="1" parent="B3XL4RLK7a_Q2uKBsKe0-40">
          <mxGeometry width="150" height="50" as="geometry">
            <mxRectangle width="150" height="50" as="alternateBounds" />
          </mxGeometry>
        </mxCell>
        <mxCell id="B3XL4RLK7a_Q2uKBsKe0-42" value="&amp;lt;h1&amp;gt; text &amp;lt;/h1&amp;gt;" style="shape=partialRectangle;html=1;whiteSpace=wrap;connectable=0;fillColor=none;top=0;left=0;bottom=0;right=0;align=left;spacingLeft=6;overflow=hidden;strokeColor=inherit;fontSize=16;" vertex="1" parent="B3XL4RLK7a_Q2uKBsKe0-40">
          <mxGeometry x="150" width="250" height="50" as="geometry">
            <mxRectangle width="250" height="50" as="alternateBounds" />
          </mxGeometry>
        </mxCell>
        <mxCell id="B3XL4RLK7a_Q2uKBsKe0-43" value="" style="shape=tableRow;horizontal=0;startSize=0;swimlaneHead=0;swimlaneBody=0;top=0;left=0;bottom=0;right=0;collapsible=0;dropTarget=0;fillColor=none;points=[[0,0.5],[1,0.5]];portConstraint=eastwest;strokeColor=inherit;fontSize=16;" vertex="1" parent="B3XL4RLK7a_Q2uKBsKe0-39">
          <mxGeometry y="100" width="400" height="70" as="geometry" />
        </mxCell>
        <mxCell id="B3XL4RLK7a_Q2uKBsKe0-44" value="Thẻ không có tag đóng" style="shape=partialRectangle;html=1;whiteSpace=wrap;connectable=0;fillColor=none;top=0;left=0;bottom=0;right=0;overflow=hidden;strokeColor=inherit;fontSize=16;" vertex="1" parent="B3XL4RLK7a_Q2uKBsKe0-43">
          <mxGeometry width="150" height="70" as="geometry">
            <mxRectangle width="150" height="70" as="alternateBounds" />
          </mxGeometry>
        </mxCell>
        <mxCell id="B3XL4RLK7a_Q2uKBsKe0-45" value="&amp;lt;img src=&quot;link-image&quot; /&amp;gt;" style="shape=partialRectangle;html=1;whiteSpace=wrap;connectable=0;fillColor=none;top=0;left=0;bottom=0;right=0;align=left;spacingLeft=6;overflow=hidden;strokeColor=inherit;fontSize=16;" vertex="1" parent="B3XL4RLK7a_Q2uKBsKe0-43">
          <mxGeometry x="150" width="250" height="70" as="geometry">
            <mxRectangle width="250" height="70" as="alternateBounds" />
          </mxGeometry>
        </mxCell>
        <mxCell id="B3XL4RLK7a_Q2uKBsKe0-57" style="edgeStyle=orthogonalEdgeStyle;rounded=0;orthogonalLoop=1;jettySize=auto;html=1;entryX=0.008;entryY=1.105;entryDx=0;entryDy=0;entryPerimeter=0;" edge="1" parent="WIyWlLk6GJQsqaUBKTNV-1" source="nfAjjsnIl3kCa8ZgCJyo-0" target="B3XL4RLK7a_Q2uKBsKe0-40">
          <mxGeometry relative="1" as="geometry">
            <Array as="points">
              <mxPoint x="-530" y="480" />
              <mxPoint x="-530" y="845" />
            </Array>
          </mxGeometry>
        </mxCell>
      </root>
    </mxGraphModel>
  </diagram>
</mxfile>
